<svg width="570" height="181" viewBox="0 0 570 181" fill="none" xmlns="http://www.w3.org/2000/svg">
<rect x="224.395" y="16" width="42.5296" height="21.2648" rx="4.25296" fill="#426583"/>
<rect x="394.514" y="16" width="42.5296" height="21.2648" rx="4.25296" fill="#426583"/>
<rect x="309.455" y="16" width="42.5296" height="21.2648" rx="4.25296" fill="#426583"/>
<rect x="479.573" y="16" width="42.5296" height="21.2648" rx="4.25296" fill="#426583"/>
<rect x="37.2648" y="16" width="42.5296" height="21.2648" rx="4.25296" fill="#982834"/>
<rect x="122.324" y="16" width="42.5296" height="21.2648" rx="4.25296" fill="#982834"/>
<path d="M16 31.9485C16 29.0125 18.3801 26.6323 21.3162 26.6323H185.055C185.643 26.6323 186.119 27.1084 186.119 27.6956V163.79C186.119 164.378 185.643 164.854 185.055 164.854H21.3162C18.3801 164.854 16 162.474 16 159.537V31.9485Z" fill="#A23A45"/>
<path d="M192.498 27.6956C192.498 27.1084 192.974 26.6323 193.561 26.6323H548.684C551.62 26.6323 554 29.0125 554 31.9485V159.537C554 162.474 551.62 164.854 548.684 164.854H193.561C192.974 164.854 192.498 164.378 192.498 163.79V27.6956Z" fill="#537694"/>
<path d="M483.506 144.648L476.778 144.586C472.625 144.586 469.344 144.565 466.935 144.523C465.19 144.523 464.048 144.191 463.508 143.527C463.508 135.885 463.612 129.094 463.82 123.155C464.152 115.928 464.318 110.383 464.318 106.521C464.318 103.946 464.38 99.8548 464.505 94.2478C464.09 86.4812 463.84 78.4653 463.757 70.2003C463.84 66.5454 463.882 63.4512 463.882 60.9177C463.882 57.0967 463.778 54.5217 463.571 53.1926C468.471 53.2757 474.369 53.3172 481.264 53.3172C485.292 66.317 489.715 79.0883 494.533 91.6313L499.393 101.848C506.536 84.7783 513.555 68.3313 520.45 52.5073C521.28 52.4658 522.132 52.3827 523.004 52.2581C525.413 51.9674 527.614 51.822 529.608 51.822C531.767 51.822 533.325 52.2789 534.28 53.1926C535.235 54.1063 535.775 55.7053 535.9 57.9897C536.066 60.274 536.232 62.5375 536.398 64.7803C537.354 76.8663 537.831 90.0945 537.831 104.465C537.831 106.334 537.81 108.224 537.769 110.134C537.769 112.045 537.603 113.997 537.271 115.99C536.897 118.275 536.71 120.559 536.71 122.843C536.71 124.671 536.772 126.54 536.897 128.45C537.021 130.361 537.084 132.271 537.084 134.182C537.084 136.798 536.814 139.373 536.274 141.907C536.108 143.07 535.215 143.651 533.595 143.651L528.922 143.589C525.018 143.589 521.135 143.797 517.272 144.212C516.151 144.212 515.59 143.713 515.59 142.717C515.59 141.969 515.694 139.726 515.902 135.988C516.151 130.34 516.276 126.83 516.276 125.46C516.276 124.172 516.006 119.147 515.466 110.383C512.559 113.166 510.233 115.575 508.488 117.61C505.913 120.476 503.276 123.238 500.576 125.896C500.286 126.104 499.849 126.207 499.268 126.207C497.773 126.207 496.714 125.854 496.091 125.148C492.727 121.369 489.445 117.34 486.247 113.062C485.583 112.273 484.981 111.422 484.441 110.508L483.755 111.006L483.506 144.648Z" fill="#D9A84B"/>
<path d="M432.919 115.803C433.459 115.637 433.937 115.409 434.352 115.118L434.913 114.807C434.456 112.522 434.061 110.466 433.729 108.639C432.857 105.524 431.736 100.332 430.365 93.0642C430.282 92.815 430.095 92.5658 429.804 92.3166C429.514 92.0259 429.244 91.8805 428.994 91.8805C427.873 91.8805 427.125 93.3549 426.752 96.3038C425.464 105.732 424.633 111.463 424.26 113.498V114.308C424.26 114.973 424.55 115.305 425.132 115.305L432.919 115.803ZM457.154 143.9L456.282 143.838C447.933 143.755 443.116 143.672 441.828 143.589C440.831 143.506 440.084 143.007 439.585 142.094C438.256 137.11 437.031 131.607 435.91 125.584C435.827 125.294 435.162 125.148 433.916 125.148C432.961 125.148 431.653 125.231 429.991 125.398C426.752 125.398 424.8 125.294 424.135 125.086L420.709 143.589L399.215 143.9C400.544 140.495 401.375 138.169 401.707 136.923C407.356 114.038 410.616 100.935 411.488 97.612C412.984 92.2128 414.666 86.855 416.535 81.5388L424.509 57.2421C425.173 55.0409 425.921 53.8779 426.752 53.7533C427.582 53.6287 428.849 53.5457 430.552 53.5042C431.216 56.0792 431.777 58.052 432.234 59.4226C432.691 60.7516 433.127 62.0392 433.542 63.2851C437.779 76.2434 443.012 91.4236 449.242 108.826C450.82 112.273 453.229 119.251 456.468 129.758C458.13 135.241 459.189 138.439 459.646 139.353C460.144 140.1 460.393 140.848 460.393 141.595C460.269 142.758 459.791 143.444 458.96 143.651C458.379 143.817 457.777 143.9 457.154 143.9Z" fill="#D9A84B"/>
<path d="M399.153 52.5696C401.354 52.7772 403.036 53.1718 404.199 53.7533C404.864 54.1686 405.217 54.6047 405.258 55.0616C405.341 55.4769 405.383 55.8507 405.383 56.1829C405.383 56.4737 405.362 56.8267 405.321 57.242C405.279 57.6158 405.258 58.0312 405.258 58.488C405.341 61.9768 405.383 65.2371 405.383 68.269V71.7578C405.383 73.2529 404.615 74.0005 403.078 74.0005H402.642C393.255 74.1251 387.378 74.1874 385.011 74.1874C383.267 74.1874 380.193 74.2705 375.791 74.4366L373.237 74.312L371.118 143.838C366.508 143.838 362.957 143.963 360.465 144.212L357.911 144.274C355.045 144.274 353.259 144.025 352.553 143.527C351.889 143.028 351.515 142.509 351.432 141.969C351.473 138.937 351.536 135.531 351.619 131.752C351.702 127.972 351.743 124.235 351.743 120.538C351.743 114.89 351.577 109.781 351.245 105.212C351.245 97.9027 351.453 85.7751 351.868 68.8297L351.806 57.1174C351.847 55.9545 352.283 54.937 353.114 54.0648C353.986 53.151 355.004 52.6734 356.167 52.6319L370.745 53.0057C372.821 53.0057 375.625 52.9434 379.155 52.8188C385.842 52.8188 392.508 52.7357 399.153 52.5696Z" fill="#D9A84B"/>
<path d="M320.656 115.803C321.196 115.637 321.674 115.409 322.089 115.118L322.65 114.807C322.193 112.522 321.798 110.466 321.466 108.639C320.594 105.524 319.472 100.332 318.102 93.0642C318.019 92.815 317.832 92.5658 317.541 92.3166C317.25 92.0259 316.98 91.8805 316.731 91.8805C315.61 91.8805 314.862 93.3549 314.488 96.3038C313.201 105.732 312.37 111.463 311.996 113.498V114.308C311.996 114.973 312.287 115.305 312.869 115.305L320.656 115.803ZM344.89 143.9L344.018 143.838C335.67 143.755 330.852 143.672 329.565 143.589C328.568 143.506 327.82 143.007 327.322 142.094C325.993 137.11 324.768 131.607 323.646 125.584C323.563 125.294 322.899 125.148 321.653 125.148C320.698 125.148 319.389 125.231 317.728 125.398C314.488 125.398 312.536 125.294 311.872 125.086L308.445 143.589L286.952 143.9C288.281 140.495 289.112 138.169 289.444 136.923C295.092 114.038 298.353 100.935 299.225 97.612C300.72 92.2128 302.402 86.855 304.271 81.5388L312.246 57.2421C312.91 55.0409 313.658 53.8779 314.488 53.7533C315.319 53.6287 316.586 53.5457 318.289 53.5042C318.953 56.0792 319.514 58.052 319.971 59.4226C320.428 60.7516 320.864 62.0392 321.279 63.2851C325.515 76.2434 330.748 91.4236 336.978 108.826C338.557 112.273 340.966 119.251 344.205 129.758C345.866 135.241 346.926 138.439 347.382 139.353C347.881 140.1 348.13 140.848 348.13 141.595C348.005 142.758 347.528 143.444 346.697 143.651C346.116 143.817 345.513 143.9 344.89 143.9Z" fill="#D9A84B"/>
<path d="M278.915 143.464C278.666 143.672 278.064 143.776 277.109 143.776L271.003 143.651H268.574L264.711 143.589H257.048V143.651H250.881C248.306 143.693 246.395 143.755 245.149 143.838C244.443 143.797 239.522 143.63 230.384 143.34C230.301 143.423 230.218 143.464 230.135 143.464C229.761 143.506 228.765 143.527 227.145 143.527C224.86 143.527 222.638 143.547 220.479 143.589C218.693 143.63 215.079 143.651 209.639 143.651L210.012 137.297C210.012 131.025 209.846 124.754 209.514 118.482C209.514 114.412 209.618 110.321 209.826 106.209C209.742 104.34 209.701 101.89 209.701 98.858C209.701 93.9986 209.805 87.6233 210.012 79.7321L209.826 60.6685C209.784 59.381 209.763 58.0104 209.763 56.5567C209.556 55.6015 209.452 54.8747 209.452 54.3763C209.452 53.7117 209.618 53.3795 209.95 53.3795C212.65 53.3795 214.394 53.4418 215.183 53.5664C218.049 53.3587 220.977 53.2549 223.967 53.2549L227.83 53.3172C228.868 53.3172 229.388 53.6079 229.388 54.1894C229.388 54.4386 229.325 54.7708 229.201 55.1862C229.741 73.8344 230.052 83.6569 230.135 84.6537C229.969 86.8965 229.886 91.3197 229.886 97.9235V122.968L236.801 123.03V97.9235C236.801 91.3197 236.718 86.8965 236.552 84.6537C236.677 83.6569 236.988 73.8344 237.486 55.1862C237.362 54.7708 237.3 54.4386 237.3 54.1894C237.3 53.6079 237.819 53.3172 238.857 53.3172L242.72 53.2549C245.71 53.2549 248.43 53.3587 250.881 53.5664C251.67 53.4418 253.435 53.3795 256.176 53.3795C256.508 53.3795 256.675 53.7117 256.675 54.3763C256.675 54.8747 256.55 55.6015 256.301 56.5567C256.301 58.0104 256.28 59.381 256.238 60.6685L256.052 79.7321C256.259 87.6233 256.363 93.9986 256.363 98.858C256.363 101.89 256.322 104.34 256.238 106.209C256.446 110.321 256.55 114.412 256.55 118.482C256.467 119.936 256.405 121.369 256.363 122.781H259.291L263.465 122.843C263.258 116.364 263.133 112.834 263.091 112.252C263.258 110.01 263.341 105.586 263.341 98.9826V63.4097L263.154 55.3731C263.154 54.1271 263.341 53.4833 263.714 53.4418C264.088 53.4002 265.064 53.3795 266.642 53.3795C268.968 53.3795 271.003 53.3587 272.748 53.3172C274.534 53.2756 278.147 53.2549 283.588 53.2549L283.214 59.6094C283.214 65.8809 283.38 72.1523 283.712 78.4238C283.712 82.494 283.609 86.585 283.401 90.6968C283.443 92.5657 283.463 95.0369 283.463 98.1104C283.463 102.97 283.38 109.324 283.214 117.174L283.401 136.238C283.443 137.525 283.463 138.896 283.463 140.349C283.671 141.346 283.775 142.094 283.775 142.592C283.775 143.257 283.609 143.589 283.276 143.589C281.283 143.589 279.829 143.547 278.915 143.464Z" fill="#D9A84B"/>
<path d="M136.254 125.975C138.248 125.601 140.387 124.189 142.671 121.738C144.955 119.288 147.302 116.796 149.711 114.263C150.666 113.017 151.31 111.542 151.642 109.839C152.057 108.344 152.597 106.849 153.262 105.354C154.425 102.779 155.006 100.557 155.006 98.6877C155.006 97.0264 154.072 94.036 152.203 89.7166C150.375 85.3557 147.198 80.9739 142.671 76.5715C140.885 74.7025 138.912 73.768 136.753 73.768C134.551 73.768 132.599 74.3702 130.896 75.5747C125.622 79.3542 122.05 84.3381 120.181 90.5265L118.499 95.3858C118.416 96.798 118.333 98.0232 118.25 99.0615C118.333 109.196 122.299 117.461 130.149 123.857C130.938 124.397 131.852 124.791 132.89 125.04L133.575 125.289C134.406 125.539 135.299 125.767 136.254 125.975ZM137.189 144.976C134.821 144.976 132.599 144.561 130.523 143.73L128.405 143.169H128.342C127.304 142.962 126.349 142.546 125.476 141.923C124.604 141.3 123.732 140.657 122.86 139.992C119.039 137.583 115.426 134.842 112.02 131.769C110.857 129.858 109.403 128.114 107.659 126.535C106.828 125.746 105.499 123.753 103.672 120.555C101.844 117.357 100.744 112.85 100.37 107.036C100.038 104.502 99.8715 102.01 99.8715 99.5599C99.8715 87.64 103.9 76.8622 111.958 67.2266C114.076 65.0669 116.464 63.1563 119.122 61.495C120.16 60.8305 121.157 60.1452 122.112 59.4392C123.607 58.2762 125.186 57.3002 126.847 56.5111L127.782 56.1373C131.935 54.1853 135.299 53.2092 137.874 53.2092C139.411 53.2092 141.01 53.4792 142.671 54.0191C143.751 54.3929 144.831 54.7252 145.911 55.0159C148.444 55.6804 150.832 56.5734 153.075 57.6948C155.359 58.8162 157.228 60.6228 158.682 63.1148C160.966 67.2266 163.064 71.4214 164.974 75.6993C170.041 87.2869 172.741 95.3235 173.073 99.8091C173.073 101.803 172.824 103.796 172.326 105.79L171.952 107.721C171.412 110.711 170.955 112.975 170.581 114.512C170.207 116.048 169.937 116.9 169.771 117.066C169.647 117.191 168.837 118.665 167.342 121.489C165.888 124.313 164.268 126.889 162.482 129.214C159.7 132.163 156.585 134.821 153.137 137.189L149.026 140.366C148.61 140.698 148.174 141.01 147.717 141.3C147.053 141.757 146.388 142.276 145.724 142.858C145.101 143.439 144.395 143.834 143.606 144.042C142.858 144.291 142.09 144.457 141.3 144.54C140.844 144.582 140.366 144.665 139.868 144.789C138.954 144.914 138.061 144.976 137.189 144.976Z" fill="#D9A84B"/>
<path d="M46.2941 144.478C43.4283 144.478 41.6424 144.228 40.9363 143.73C40.2718 143.232 39.898 142.713 39.8149 142.173C39.8565 139.141 39.9188 135.735 40.0018 131.956C40.0849 128.176 40.1264 124.438 40.1264 120.742C40.1264 115.093 39.9603 109.985 39.628 105.416C39.4204 101.761 39.3165 96.8395 39.3165 90.6511C39.3165 84.5042 39.4204 77.0906 39.628 68.4103L39.5657 56.698C39.6073 55.5351 40.0434 54.5175 40.874 53.6453C41.7462 52.7316 42.7638 52.254 43.9267 52.2124L45.7334 52.2747L46.6679 52.1501C52.8978 52.3163 59.5223 52.3993 66.5413 52.3993C73.4773 52.3993 79.6449 52.3163 85.0442 52.1501L85.9787 52.2747L87.7854 52.2124C89.779 52.254 91.1911 52.7316 92.0217 53.6453C92.8939 54.5175 93.3508 55.5351 93.3923 56.698L93.33 68.4103C93.5377 77.0906 93.6415 84.5042 93.6415 90.6511C93.6415 96.8395 93.5377 101.761 93.33 105.416C92.9978 109.985 92.8316 115.093 92.8316 120.742C92.8316 124.438 92.8732 128.176 92.9562 131.956C93.0393 135.735 93.1016 139.141 93.1431 142.173C92.9355 143.502 91.8556 144.166 89.9036 144.166C89.0314 144.166 87.9515 144.062 86.664 143.855L84.7327 143.792C83.819 143.709 82.7391 143.668 81.4932 143.668C79.4165 143.668 76.9453 143.792 74.0795 144.042L73.8303 73.8926L71.2761 74.0172L66.1675 73.8926L61.059 74.0172L58.5047 73.8926L58.8785 144.042C54.2684 144.042 50.7173 144.166 48.2253 144.415L46.2941 144.478Z" fill="#D9A84B"/>
</svg>
