<svg width="506" height="140" viewBox="0 0 506 140" fill="none" xmlns="http://www.w3.org/2000/svg">
<rect x="196" width="40" height="20" rx="4" fill="#D2DCB3"/>
<rect x="356" width="40" height="20" rx="4" fill="#D2DCB3"/>
<rect x="276" width="40" height="20" rx="4" fill="#D2DCB3"/>
<rect x="436" width="40" height="20" rx="4" fill="#D2DCB3"/>
<rect x="20" width="40" height="20" rx="4" fill="#B4DBD2"/>
<rect x="100" width="40" height="20" rx="4" fill="#B4DBD2"/>
<path d="M0 15C0 12.2386 2.23858 10 5 10H159C159.552 10 160 10.4477 160 11V139C160 139.552 159.552 140 159 140H5C2.23858 140 0 137.761 0 135V15Z" fill="#C1E4DC"/>
<path d="M166 11C166 10.4477 166.448 10 167 10H501C503.761 10 506 12.2386 506 15V135C506 137.761 503.761 140 501 140H167C166.448 140 166 139.552 166 139V11Z" fill="#DCE7B6"/>
<path d="M439.699 120.996L433.371 120.938C429.465 120.938 426.379 120.918 424.113 120.879C422.473 120.879 421.398 120.566 420.891 119.941C420.891 112.754 420.988 106.367 421.184 100.781C421.496 93.9844 421.652 88.7695 421.652 85.1367C421.652 82.7148 421.711 78.8672 421.828 73.5938C421.438 66.2891 421.203 58.75 421.125 50.9766C421.203 47.5391 421.242 44.6289 421.242 42.2461C421.242 38.6523 421.145 36.2305 420.949 34.9805C425.559 35.0586 431.105 35.0977 437.59 35.0977C441.379 47.3242 445.539 59.3359 450.07 71.1328L454.641 80.7422C461.359 64.6875 467.961 49.2188 474.445 34.3359C475.227 34.2969 476.027 34.2188 476.848 34.1016C479.113 33.8281 481.184 33.6914 483.059 33.6914C485.09 33.6914 486.555 34.1211 487.453 34.9805C488.352 35.8398 488.859 37.3438 488.977 39.4922C489.133 41.6406 489.289 43.7695 489.445 45.8789C490.344 57.2461 490.793 69.6875 490.793 83.2031C490.793 84.9609 490.773 86.7383 490.734 88.5352C490.734 90.332 490.578 92.168 490.266 94.043C489.914 96.1914 489.738 98.3398 489.738 100.488C489.738 102.207 489.797 103.965 489.914 105.762C490.031 107.559 490.09 109.355 490.09 111.152C490.09 113.613 489.836 116.035 489.328 118.418C489.172 119.512 488.332 120.059 486.809 120.059L482.414 120C478.742 120 475.09 120.195 471.457 120.586C470.402 120.586 469.875 120.117 469.875 119.18C469.875 118.477 469.973 116.367 470.168 112.852C470.402 107.539 470.52 104.238 470.52 102.949C470.52 101.738 470.266 97.0117 469.758 88.7695C467.023 91.3867 464.836 93.6523 463.195 95.5664C460.773 98.2617 458.293 100.859 455.754 103.359C455.48 103.555 455.07 103.652 454.523 103.652C453.117 103.652 452.121 103.32 451.535 102.656C448.371 99.1016 445.285 95.3125 442.277 91.2891C441.652 90.5469 441.086 89.7461 440.578 88.8867L439.934 89.3555L439.699 120.996Z" fill="#444444"/>
<path d="M392.121 93.8672C392.629 93.7109 393.078 93.4961 393.469 93.2227L393.996 92.9297C393.566 90.7812 393.195 88.8477 392.883 87.1289C392.062 84.1992 391.008 79.3164 389.719 72.4805C389.641 72.2461 389.465 72.0117 389.191 71.7773C388.918 71.5039 388.664 71.3672 388.43 71.3672C387.375 71.3672 386.672 72.7539 386.32 75.5273C385.109 84.3945 384.328 89.7852 383.977 91.6992V92.4609C383.977 93.0859 384.25 93.3984 384.797 93.3984L392.121 93.8672ZM414.914 120.293L414.094 120.234C406.242 120.156 401.711 120.078 400.5 120C399.562 119.922 398.859 119.453 398.391 118.594C397.141 113.906 395.988 108.73 394.934 103.066C394.855 102.793 394.23 102.656 393.059 102.656C392.16 102.656 390.93 102.734 389.367 102.891C386.32 102.891 384.484 102.793 383.859 102.598L380.637 120L360.422 120.293C361.672 117.09 362.453 114.902 362.766 113.73C368.078 92.207 371.145 79.8828 371.965 76.7578C373.371 71.6797 374.953 66.6406 376.711 61.6406L384.211 38.7891C384.836 36.7188 385.539 35.625 386.32 35.5078C387.102 35.3906 388.293 35.3125 389.895 35.2734C390.52 37.6953 391.047 39.5508 391.477 40.8398C391.906 42.0898 392.316 43.3008 392.707 44.4727C396.691 56.6602 401.613 70.9375 407.473 87.3047C408.957 90.5469 411.223 97.1094 414.27 106.992C415.832 112.148 416.828 115.156 417.258 116.016C417.727 116.719 417.961 117.422 417.961 118.125C417.844 119.219 417.395 119.863 416.613 120.059C416.066 120.215 415.5 120.293 414.914 120.293Z" fill="#444444"/>
<path d="M360.363 34.3945C362.434 34.5898 364.016 34.9609 365.109 35.5078C365.734 35.8984 366.066 36.3086 366.105 36.7383C366.184 37.1289 366.223 37.4805 366.223 37.793C366.223 38.0664 366.203 38.3984 366.164 38.7891C366.125 39.1406 366.105 39.5312 366.105 39.9609C366.184 43.2422 366.223 46.3086 366.223 49.1602V52.4414C366.223 53.8477 365.5 54.5508 364.055 54.5508H363.645C354.816 54.668 349.289 54.7266 347.062 54.7266C345.422 54.7266 342.531 54.8047 338.391 54.9609L335.988 54.8438L333.996 120.234C329.66 120.234 326.32 120.352 323.977 120.586L321.574 120.645C318.879 120.645 317.199 120.41 316.535 119.941C315.91 119.473 315.559 118.984 315.48 118.477C315.52 115.625 315.578 112.422 315.656 108.867C315.734 105.312 315.773 101.797 315.773 98.3203C315.773 93.0078 315.617 88.2031 315.305 83.9062C315.305 77.0312 315.5 65.625 315.891 49.6875L315.832 38.6719C315.871 37.5781 316.281 36.6211 317.062 35.8008C317.883 34.9414 318.84 34.4922 319.934 34.4531L333.645 34.8047C335.598 34.8047 338.234 34.7461 341.555 34.6289C347.844 34.6289 354.113 34.5508 360.363 34.3945Z" fill="#444444"/>
<path d="M286.535 93.8672C287.043 93.7109 287.492 93.4961 287.883 93.2227L288.41 92.9297C287.98 90.7812 287.609 88.8477 287.297 87.1289C286.477 84.1992 285.422 79.3164 284.133 72.4805C284.055 72.2461 283.879 72.0117 283.605 71.7773C283.332 71.5039 283.078 71.3672 282.844 71.3672C281.789 71.3672 281.086 72.7539 280.734 75.5273C279.523 84.3945 278.742 89.7852 278.391 91.6992V92.4609C278.391 93.0859 278.664 93.3984 279.211 93.3984L286.535 93.8672ZM309.328 120.293L308.508 120.234C300.656 120.156 296.125 120.078 294.914 120C293.977 119.922 293.273 119.453 292.805 118.594C291.555 113.906 290.402 108.73 289.348 103.066C289.27 102.793 288.645 102.656 287.473 102.656C286.574 102.656 285.344 102.734 283.781 102.891C280.734 102.891 278.898 102.793 278.273 102.598L275.051 120L254.836 120.293C256.086 117.09 256.867 114.902 257.18 113.73C262.492 92.207 265.559 79.8828 266.379 76.7578C267.785 71.6797 269.367 66.6406 271.125 61.6406L278.625 38.7891C279.25 36.7188 279.953 35.625 280.734 35.5078C281.516 35.3906 282.707 35.3125 284.309 35.2734C284.934 37.6953 285.461 39.5508 285.891 40.8398C286.32 42.0898 286.73 43.3008 287.121 44.4727C291.105 56.6602 296.027 70.9375 301.887 87.3047C303.371 90.5469 305.637 97.1094 308.684 106.992C310.246 112.148 311.242 115.156 311.672 116.016C312.141 116.719 312.375 117.422 312.375 118.125C312.258 119.219 311.809 119.863 311.027 120.059C310.48 120.215 309.914 120.293 309.328 120.293Z" fill="#444444"/>
<path d="M247.277 119.883C247.043 120.078 246.477 120.176 245.578 120.176L239.836 120.059H237.551L233.918 120H226.711V120.059H220.91C218.488 120.098 216.691 120.156 215.52 120.234C214.855 120.195 210.227 120.039 201.633 119.766C201.555 119.844 201.477 119.883 201.398 119.883C201.047 119.922 200.109 119.941 198.586 119.941C196.438 119.941 194.348 119.961 192.316 120C190.637 120.039 187.238 120.059 182.121 120.059L182.473 114.082C182.473 108.184 182.316 102.285 182.004 96.3867C182.004 92.5586 182.102 88.7109 182.297 84.8438C182.219 83.0859 182.18 80.7812 182.18 77.9297C182.18 73.3594 182.277 67.3633 182.473 59.9414L182.297 42.0117C182.258 40.8008 182.238 39.5117 182.238 38.1445C182.043 37.2461 181.945 36.5625 181.945 36.0938C181.945 35.4688 182.102 35.1562 182.414 35.1562C184.953 35.1562 186.594 35.2148 187.336 35.332C190.031 35.1367 192.785 35.0391 195.598 35.0391L199.23 35.0977C200.207 35.0977 200.695 35.3711 200.695 35.918C200.695 36.1523 200.637 36.4648 200.52 36.8555C201.027 54.3945 201.32 63.6328 201.398 64.5703C201.242 66.6797 201.164 70.8398 201.164 77.0508V100.605L207.668 100.664V77.0508C207.668 70.8398 207.59 66.6797 207.434 64.5703C207.551 63.6328 207.844 54.3945 208.312 36.8555C208.195 36.4648 208.137 36.1523 208.137 35.918C208.137 35.3711 208.625 35.0977 209.602 35.0977L213.234 35.0391C216.047 35.0391 218.605 35.1367 220.91 35.332C221.652 35.2148 223.312 35.1562 225.891 35.1562C226.203 35.1562 226.359 35.4688 226.359 36.0938C226.359 36.5625 226.242 37.2461 226.008 38.1445C226.008 39.5117 225.988 40.8008 225.949 42.0117L225.773 59.9414C225.969 67.3633 226.066 73.3594 226.066 77.9297C226.066 80.7812 226.027 83.0859 225.949 84.8438C226.145 88.7109 226.242 92.5586 226.242 96.3867C226.164 97.7539 226.105 99.1016 226.066 100.43H228.82L232.746 100.488C232.551 94.3945 232.434 91.0742 232.395 90.5273C232.551 88.418 232.629 84.2578 232.629 78.0469V44.5898L232.453 37.0312C232.453 35.8594 232.629 35.2539 232.98 35.2148C233.332 35.1758 234.25 35.1562 235.734 35.1562C237.922 35.1562 239.836 35.1367 241.477 35.0977C243.156 35.0586 246.555 35.0391 251.672 35.0391L251.32 41.0156C251.32 46.9141 251.477 52.8125 251.789 58.7109C251.789 62.5391 251.691 66.3867 251.496 70.2539C251.535 72.0117 251.555 74.3359 251.555 77.2266C251.555 81.7969 251.477 87.7734 251.32 95.1562L251.496 113.086C251.535 114.297 251.555 115.586 251.555 116.953C251.75 117.891 251.848 118.594 251.848 119.062C251.848 119.688 251.691 120 251.379 120C249.504 120 248.137 119.961 247.277 119.883Z" fill="#444444"/>
<path d="M113.102 103.434C114.977 103.082 116.988 101.754 119.137 99.4492C121.285 97.1445 123.492 94.8008 125.758 92.418C126.656 91.2461 127.262 89.8594 127.574 88.2578C127.965 86.8516 128.473 85.4453 129.098 84.0391C130.191 81.6172 130.738 79.5273 130.738 77.7695C130.738 76.207 129.859 73.3945 128.102 69.332C126.383 65.2305 123.395 61.1094 119.137 56.9688C117.457 55.2109 115.602 54.332 113.57 54.332C111.5 54.332 109.664 54.8984 108.062 56.0312C103.102 59.5859 99.7422 64.2734 97.9844 70.0938L96.4023 74.6641C96.3242 75.9922 96.2461 77.1445 96.168 78.1211C96.2461 87.6523 99.9766 95.4258 107.359 101.441C108.102 101.949 108.961 102.32 109.938 102.555L110.582 102.789C111.363 103.023 112.203 103.238 113.102 103.434ZM113.98 121.305C111.754 121.305 109.664 120.914 107.711 120.133L105.719 119.605H105.66C104.684 119.41 103.785 119.02 102.965 118.434C102.145 117.848 101.324 117.242 100.504 116.617C96.9102 114.352 93.5117 111.773 90.3086 108.883C89.2148 107.086 87.8477 105.445 86.207 103.961C85.4258 103.219 84.1758 101.344 82.457 98.3359C80.7383 95.3281 79.7031 91.0898 79.3516 85.6211C79.0391 83.2383 78.8828 80.8945 78.8828 78.5898C78.8828 67.3789 82.6719 57.2422 90.25 48.1797C92.2422 46.1484 94.4883 44.3516 96.9883 42.7891C97.9648 42.1641 98.9023 41.5195 99.8008 40.8555C101.207 39.7617 102.691 38.8438 104.254 38.1016L105.133 37.75C109.039 35.9141 112.203 34.9961 114.625 34.9961C116.07 34.9961 117.574 35.25 119.137 35.7578C120.152 36.1094 121.168 36.4219 122.184 36.6953C124.566 37.3203 126.812 38.1602 128.922 39.2148C131.07 40.2695 132.828 41.9688 134.195 44.3125C136.344 48.1797 138.316 52.125 140.113 56.1484C144.879 67.0469 147.418 74.6055 147.73 78.8242C147.73 80.6992 147.496 82.5742 147.027 84.4492L146.676 86.2656C146.168 89.0781 145.738 91.207 145.387 92.6523C145.035 94.0977 144.781 94.8984 144.625 95.0547C144.508 95.1719 143.746 96.5586 142.34 99.2148C140.973 101.871 139.449 104.293 137.77 106.48C135.152 109.254 132.223 111.754 128.98 113.98L125.113 116.969C124.723 117.281 124.312 117.574 123.883 117.848C123.258 118.277 122.633 118.766 122.008 119.312C121.422 119.859 120.758 120.23 120.016 120.426C119.312 120.66 118.59 120.816 117.848 120.895C117.418 120.934 116.969 121.012 116.5 121.129C115.641 121.246 114.801 121.305 113.98 121.305Z" fill="#444444"/>
<path d="M28.4922 120.836C25.7969 120.836 24.1172 120.602 23.4531 120.133C22.8281 119.664 22.4766 119.176 22.3984 118.668C22.4375 115.816 22.4961 112.613 22.5742 109.059C22.6523 105.504 22.6914 101.988 22.6914 98.5117C22.6914 93.1992 22.5352 88.3945 22.2227 84.0977C22.0273 80.6602 21.9297 76.0312 21.9297 70.2109C21.9297 64.4297 22.0273 57.457 22.2227 49.293L22.1641 38.2773C22.2031 37.1836 22.6133 36.2266 23.3945 35.4062C24.2148 34.5469 25.1719 34.0977 26.2656 34.0586L27.9648 34.1172L28.8438 34C34.7031 34.1562 40.9336 34.2344 47.5352 34.2344C54.0586 34.2344 59.8594 34.1562 64.9375 34L65.8164 34.1172L67.5156 34.0586C69.3906 34.0977 70.7188 34.5469 71.5 35.4062C72.3203 36.2266 72.75 37.1836 72.7891 38.2773L72.7305 49.293C72.9258 57.457 73.0234 64.4297 73.0234 70.2109C73.0234 76.0312 72.9258 80.6602 72.7305 84.0977C72.418 88.3945 72.2617 93.1992 72.2617 98.5117C72.2617 101.988 72.3008 105.504 72.3789 109.059C72.457 112.613 72.5156 115.816 72.5547 118.668C72.3594 119.918 71.3438 120.543 69.5078 120.543C68.6875 120.543 67.6719 120.445 66.4609 120.25L64.6445 120.191C63.7852 120.113 62.7695 120.074 61.5977 120.074C59.6445 120.074 57.3203 120.191 54.625 120.426L54.3906 54.4492L51.9883 54.5664L47.1836 54.4492L42.3789 54.5664L39.9766 54.4492L40.3281 120.426C35.9922 120.426 32.6523 120.543 30.3086 120.777L28.4922 120.836Z" fill="#444444"/>
</svg>
